<svg width="56" height="57" viewBox="0 0 56 57"  xmlns="http://www.w3.org/2000/svg">
<g clip-path="url(#clip0_0_157)">
<path d="M56 0.160034H0V56.16H56V0.160034Z" />
<path opacity="0.35" d="M38.8889 36.7156H17.1111C14.5336 36.7156 12.4445 34.6265 12.4445 32.049V19.6045C12.4445 17.027 14.5336 14.9379 17.1111 14.9379H38.8889C41.4665 14.9379 43.5556 17.027 43.5556 19.6045V32.049C43.5556 34.6265 41.4665 36.7156 38.8889 36.7156Z" fill="#4A3AFF"/>
<path d="M33.4445 36.7156C33.1707 36.7156 22.8293 36.7156 22.5556 36.7156C21.2676 36.7156 20.2222 37.7609 20.2222 39.0489C20.2222 40.3369 21.2676 41.3822 22.5556 41.3822C22.8293 41.3822 33.1707 41.3822 33.4445 41.3822C34.7325 41.3822 35.7778 40.3369 35.7778 39.0489C35.7778 37.7609 34.7325 36.7156 33.4445 36.7156Z" fill="#4A3AFF"/>
</g>
<defs>
<clipPath id="clip0_0_157">
<rect width="56" height="56"  transform="translate(0 0.160034)"/>
</clipPath>
</defs>
</svg>
