<svg width="56" height="57" viewBox="0 0 56 57"  xmlns="http://www.w3.org/2000/svg">
<g clip-path="url(#clip0_0_166)">
<path d="M56 0.160034H0V56.16H56V0.160034Z" />
<path opacity="0.35" d="M28.0001 27.3822C31.4365 27.3822 34.2223 24.5964 34.2223 21.16C34.2223 17.7235 31.4365 14.9377 28.0001 14.9377C24.5636 14.9377 21.7778 17.7235 21.7778 21.16C21.7778 24.5964 24.5636 27.3822 28.0001 27.3822Z" />
<path opacity="0.35" d="M16.3333 30.4932C18.4811 30.4932 20.2222 28.7521 20.2222 26.6043C20.2222 24.4566 18.4811 22.7155 16.3333 22.7155C14.1856 22.7155 12.4445 24.4566 12.4445 26.6043C12.4445 28.7521 14.1856 30.4932 16.3333 30.4932Z" />
<path opacity="0.35" d="M39.6667 30.4932C41.8145 30.4932 43.5556 28.7521 43.5556 26.6043C43.5556 24.4566 41.8145 22.7155 39.6667 22.7155C37.519 22.7155 35.7778 24.4566 35.7778 26.6043C35.7778 28.7521 37.519 30.4932 39.6667 30.4932Z" />
<path d="M32.6666 41.3822H23.3333C20.7557 41.3822 18.6666 38.9446 18.6666 35.9377C18.6666 32.9308 20.7557 30.4933 23.3333 30.4933H32.6666C35.2442 30.4933 37.3333 32.9308 37.3333 35.9377C37.3333 38.9446 35.2442 41.3822 32.6666 41.3822Z" />
<path opacity="0.35" d="M42.8572 33.6044H13.0232C10.9854 33.6044 9.33337 35.2564 9.33337 37.2941V37.6939C9.33337 39.7301 10.9854 41.3821 13.0232 41.3821H42.8572C44.9603 41.3821 46.6667 39.6757 46.6667 37.571V37.4139C46.6667 35.3108 44.9603 33.6044 42.8572 33.6044Z" />
</g>
<defs>
<clipPath id="clip0_0_166">
<rect width="56" height="56" transform="translate(0 0.160034)"/>
</clipPath>
</defs>
</svg>
