<svg width="204" height="24" viewBox="0 0 204 24" fill="none" xmlns="http://www.w3.org/2000/svg">
<path d="M10.304 23.5919C9.536 21.5226 8.75733 19.4852 7.968 17.4799C7.2 15.4532 6.45333 13.5226 5.728 11.6879C5.00267 9.85323 4.32 8.1999 3.68 6.7279C3.232 5.68257 2.88 4.9039 2.624 4.3919C2.368 3.8799 2.12267 3.53857 1.888 3.3679C1.65333 3.19724 1.344 3.09057 0.96 3.0479C0.896 2.7919 0.853333 2.54657 0.832 2.3119C0.810667 2.0559 0.8 1.84257 0.8 1.6719C1.01333 1.69323 1.26933 1.71457 1.568 1.7359C1.86667 1.7359 2.18667 1.74657 2.528 1.7679C2.89067 1.7679 3.25333 1.7679 3.616 1.7679C3.97867 1.7679 4.33067 1.7679 4.672 1.7679C5.35467 1.7679 6.016 1.75723 6.656 1.7359C7.31733 1.71457 7.94667 1.69323 8.544 1.6719C8.544 1.8639 8.52267 2.0879 8.48 2.3439C8.45867 2.57857 8.42667 2.81323 8.384 3.0479C7.68 3.09057 7.15733 3.2079 6.816 3.3999C6.47467 3.57057 6.32533 3.90123 6.368 4.3919C6.432 4.86123 6.67733 5.58657 7.104 6.5679C7.68 7.93324 8.24533 9.3199 8.8 10.7279C9.35467 12.1359 9.89867 13.5652 10.432 15.0159C10.9867 16.4452 11.5413 17.9279 12.096 19.4639H11.616C12.2347 18.0772 12.8213 16.7012 13.376 15.3359C13.952 13.9706 14.5067 12.5946 15.04 11.2079C15.5947 9.7999 16.128 8.38124 16.64 6.9519C17.0453 5.75723 17.1627 4.8399 16.992 4.1999C16.8427 3.53857 16.288 3.15457 15.328 3.0479C15.264 2.81323 15.2213 2.5679 15.2 2.3119C15.1787 2.0559 15.168 1.84257 15.168 1.6719C15.488 1.69323 15.7867 1.71457 16.064 1.7359C16.3627 1.7359 16.6613 1.74657 16.96 1.7679C17.2587 1.7679 17.568 1.7679 17.888 1.7679C18.3787 1.7679 18.9227 1.75723 19.52 1.7359C20.1387 1.71457 20.6827 1.69323 21.152 1.6719C21.152 1.90657 21.1413 2.14123 21.12 2.3759C21.0987 2.58924 21.056 2.81323 20.992 3.0479C20.3307 3.19724 19.808 3.60257 19.424 4.2639C19.04 4.9039 18.6453 5.75724 18.24 6.8239C17.1733 9.5759 16.0747 12.3386 14.944 15.1119C13.8347 17.8852 12.704 20.6692 11.552 23.4639C11.3387 23.5066 11.136 23.5386 10.944 23.5599C10.7733 23.5812 10.56 23.5919 10.304 23.5919ZM21.5278 23.4959C21.5278 23.2826 21.5384 23.0586 21.5598 22.8239C21.5811 22.5679 21.6238 22.3332 21.6878 22.1199C22.5411 22.1199 23.1171 21.9279 23.4158 21.5439C23.7358 21.1386 23.8958 20.4026 23.8958 19.3359V12.9999C23.8958 12.4879 23.8424 12.0719 23.7358 11.7519C23.6504 11.4106 23.4371 11.1546 23.0958 10.9839C22.7544 10.8132 22.2211 10.7279 21.4958 10.7279C21.4958 10.4932 21.5171 10.2799 21.5598 10.0879C21.6024 9.8959 21.6771 9.71457 21.7838 9.5439C22.1038 9.5439 22.5518 9.49057 23.1278 9.3839C23.7251 9.27724 24.3011 9.13857 24.8558 8.9679C25.4104 8.79723 25.8158 8.62657 26.0718 8.4559C26.2638 8.5199 26.4238 8.6479 26.5518 8.8399C26.7011 9.0319 26.7758 9.33057 26.7758 9.7359V19.3359C26.7758 20.4026 26.9144 21.1386 27.1918 21.5439C27.4904 21.9279 27.9811 22.1199 28.6638 22.1199C28.7278 22.3332 28.7704 22.5786 28.7917 22.8559C28.8131 23.1332 28.8238 23.3466 28.8238 23.4959C28.4611 23.4746 28.0771 23.4532 27.6718 23.4319C27.2664 23.4319 26.8504 23.4212 26.4238 23.3999C26.0184 23.3999 25.6131 23.3999 25.2078 23.3999C24.8024 23.3999 24.3758 23.3999 23.9278 23.3999C23.5011 23.4212 23.0851 23.4319 22.6798 23.4319C22.2744 23.4532 21.8904 23.4746 21.5278 23.4959ZM25.0798 4.8399C24.5464 4.8399 24.0984 4.65857 23.7358 4.2959C23.3731 3.93324 23.1918 3.4959 23.1918 2.9839C23.1918 2.4079 23.3838 1.93857 23.7678 1.5759C24.1518 1.21323 24.5891 1.0319 25.0798 1.0319C25.6558 1.0319 26.1144 1.21323 26.4558 1.5759C26.8184 1.93857 26.9998 2.4079 26.9998 2.9839C26.9998 3.47457 26.8078 3.9119 26.4238 4.2959C26.0611 4.65857 25.6131 4.8399 25.0798 4.8399ZM41.3288 9.5759C41.3074 10.0879 41.2861 10.6319 41.2648 11.2079C41.2648 11.7839 41.3074 12.3492 41.3928 12.9039C41.1794 13.0319 40.9341 13.1279 40.6568 13.1919C40.3794 13.2559 40.0914 13.2879 39.7928 13.2879C39.7501 12.6906 39.5688 12.1252 39.2488 11.5919C38.9501 11.0586 38.5448 10.6212 38.0328 10.2799C37.5208 9.93857 36.9128 9.7679 36.2088 9.7679C35.5474 9.7679 35.0141 9.9279 34.6088 10.2479C34.2248 10.5679 34.0328 10.9946 34.0328 11.5279C34.0328 11.8906 34.1074 12.2106 34.2568 12.4879C34.4274 12.7652 34.7794 13.0639 35.3128 13.3839C35.8674 13.6826 36.7101 14.0559 37.8408 14.5039C38.9928 14.9306 39.8994 15.3572 40.5608 15.7839C41.2221 16.2106 41.6914 16.6906 41.9688 17.2239C42.2461 17.7572 42.3848 18.4079 42.3848 19.1759C42.3848 20.0719 42.1288 20.8612 41.6168 21.5439C41.1048 22.2266 40.4008 22.7599 39.5048 23.1439C38.6301 23.5066 37.6381 23.6879 36.5288 23.6879C35.2488 23.6879 34.2248 23.5919 33.4568 23.3999C32.7101 23.1866 31.9741 22.8879 31.2488 22.5039C31.2914 22.1626 31.3128 21.7466 31.3128 21.2559C31.3341 20.7652 31.3448 20.2746 31.3448 19.7839C31.3448 19.2932 31.3234 18.8772 31.2808 18.5359C31.4514 18.4079 31.6861 18.3226 31.9848 18.2799C32.3048 18.2159 32.6248 18.1839 32.9448 18.1839C33.1154 19.5279 33.5314 20.5306 34.1927 21.1919C34.8541 21.8532 35.7394 22.1839 36.8488 22.1839C37.7234 22.1839 38.3954 21.9919 38.8648 21.6079C39.3554 21.2239 39.6008 20.7332 39.6008 20.1359C39.6008 19.7519 39.5048 19.4212 39.3128 19.1439C39.1421 18.8666 38.8114 18.5892 38.3208 18.3119C37.8301 18.0346 37.1048 17.7039 36.1448 17.3199C34.9928 16.8506 34.0648 16.4132 33.3608 16.0079C32.6781 15.6026 32.1768 15.1226 31.8568 14.5679C31.5581 14.0132 31.4088 13.3092 31.4088 12.4559C31.4088 11.7732 31.5794 11.1866 31.9208 10.6959C32.2621 10.1839 32.6994 9.7679 33.2328 9.4479C33.7874 9.10657 34.3741 8.86123 34.9928 8.7119C35.6114 8.54124 36.1874 8.4559 36.7208 8.4559C37.6808 8.4559 38.5234 8.5519 39.2488 8.7439C39.9741 8.9359 40.6674 9.21323 41.3288 9.5759ZM50.8563 23.5279C49.4269 23.5279 48.3069 23.1119 47.4963 22.2799C46.6856 21.4479 46.2803 19.9652 46.2803 17.8319V12.9999C46.2803 12.2532 46.1736 11.6986 45.9603 11.3359C45.7469 10.9519 45.1496 10.7492 44.1683 10.7279C44.1683 10.4932 44.1789 10.2906 44.2003 10.1199C44.2429 9.9279 44.3069 9.7359 44.3923 9.5439C45.0536 9.50123 45.7683 9.37323 46.5363 9.1599C47.3256 8.94657 47.9656 8.7119 48.4563 8.4559C48.6483 8.5199 48.8083 8.65857 48.9363 8.8719C49.0856 9.0639 49.1603 9.39457 49.1603 9.8639V17.1279C49.1603 18.5572 49.3523 19.6559 49.7363 20.4239C50.1416 21.1919 50.8349 21.5759 51.8163 21.5759C52.8829 21.5759 53.7683 21.1279 54.4723 20.2319C55.1976 19.3359 55.5603 17.9599 55.5603 16.1039V12.8399C55.5603 12.0932 55.4216 11.5386 55.1443 11.1759C54.8883 10.7919 54.2269 10.5892 53.1603 10.5679C53.1603 10.3332 53.1709 10.1306 53.1923 9.9599C53.2136 9.7679 53.2776 9.5759 53.3843 9.3839C54.2163 9.34123 55.0269 9.23457 55.8163 9.0639C56.6269 8.8719 57.2669 8.66924 57.7363 8.4559C57.9283 8.5199 58.0883 8.65857 58.2163 8.8719C58.3656 9.0639 58.4403 9.39457 58.4403 9.8639V19.1439L55.9443 20.3279C55.8376 20.6052 55.6883 20.8826 55.4963 21.1599C55.3043 21.4159 55.0909 21.6612 54.8563 21.8959C54.3016 22.4506 53.7149 22.8666 53.0963 23.1439C52.4776 23.3999 51.7309 23.5279 50.8563 23.5279ZM56.5843 23.6879C56.3709 23.5812 56.1789 23.4319 56.0083 23.2399C55.8589 23.0266 55.7843 22.5572 55.7843 21.8319C55.7843 21.5972 55.7949 21.2666 55.8163 20.8399C55.8589 20.4132 55.9549 19.8159 56.1043 19.0479H58.4403C58.4403 19.5386 58.4829 19.9546 58.5683 20.2959C58.6536 20.6159 58.8349 20.8506 59.1123 20.9999C59.4109 21.1492 59.8483 21.2239 60.4243 21.2239C60.4243 21.4372 60.4136 21.6826 60.3923 21.9599C60.3709 22.2159 60.3176 22.4612 60.2323 22.6959C59.6989 22.7172 59.0803 22.8239 58.3763 23.0159C57.6723 23.1866 57.0749 23.4106 56.5843 23.6879ZM72.6948 23.6879C72.4601 23.5812 72.2681 23.3892 72.1188 23.1119C71.9908 22.8346 71.9268 22.3972 71.9268 21.7999C71.9268 21.6079 71.9374 21.3839 71.9588 21.1279C71.9801 20.8506 72.0228 20.6052 72.0868 20.3919H72.1508C72.0868 20.7332 71.9374 21.1066 71.7028 21.5119C71.4894 21.8959 71.2014 22.2372 70.8388 22.5359C70.4761 22.8559 70.0174 23.1226 69.4628 23.3359C68.9081 23.5279 68.2361 23.6239 67.4468 23.6239C66.1028 23.6239 65.0788 23.3252 64.3748 22.7279C63.6708 22.1092 63.3188 21.2772 63.3188 20.2319C63.3188 19.3999 63.5108 18.6959 63.8948 18.1199C64.3001 17.5226 64.8121 17.0319 65.4308 16.6479C66.0708 16.2426 66.7534 15.9226 67.4788 15.6879C68.2254 15.4532 68.9508 15.2719 69.6548 15.1439C70.3588 15.0159 70.9774 14.9092 71.5108 14.8239C71.5108 13.9492 71.4894 13.2666 71.4468 12.7759C71.4254 12.2852 71.3614 11.9012 71.2548 11.6239C71.1694 11.3252 71.0308 11.0692 70.8388 10.8559C70.5828 10.5359 70.2841 10.3012 69.9427 10.1519C69.6228 9.98123 69.2601 9.8959 68.8548 9.8959C68.1508 9.8959 67.5961 10.1199 67.1908 10.5679C66.7854 10.9946 66.4974 11.4959 66.3268 12.0719C66.1561 12.6479 66.0601 13.1599 66.0388 13.6079C65.8041 13.6079 65.5054 13.5972 65.1428 13.5759C64.8014 13.5332 64.5454 13.4692 64.3748 13.3839C64.4174 12.8506 64.4281 12.2532 64.4068 11.5919C64.3854 10.9306 64.3214 10.3652 64.2148 9.8959C65.0894 9.4479 66.0068 9.0959 66.9668 8.8399C67.9481 8.5839 68.8441 8.4559 69.6548 8.4559C70.4441 8.4559 71.1161 8.57324 71.6708 8.8079C72.2468 9.02124 72.7054 9.30924 73.0468 9.6719C73.6014 10.2052 73.9641 10.9092 74.1348 11.7839C74.3054 12.6372 74.3908 13.7786 74.3908 15.2079V18.7279C74.3908 19.3252 74.4334 19.8052 74.5188 20.1679C74.6254 20.5092 74.8174 20.7652 75.0948 20.9359C75.3721 21.0852 75.7988 21.1812 76.3748 21.2239C76.3748 21.4372 76.3641 21.6826 76.3428 21.9599C76.3214 22.2159 76.2681 22.4612 76.1828 22.6959C75.6494 22.7172 75.0521 22.8239 74.3908 23.0159C73.7508 23.1866 73.1854 23.4106 72.6948 23.6879ZM68.3428 21.8639C68.8121 21.8639 69.2921 21.7146 69.7828 21.4159C70.2734 21.0959 70.6788 20.6052 70.9988 19.9439C71.3401 19.2826 71.5108 18.4186 71.5108 17.3519V16.1359C70.9774 16.1999 70.4121 16.2959 69.8148 16.4239C69.2174 16.5306 68.6628 16.7012 68.1508 16.9359C67.6388 17.1706 67.2228 17.5012 66.9028 17.9279C66.5828 18.3332 66.4227 18.8879 66.4227 19.5919C66.4227 20.3812 66.6148 20.9572 66.9988 21.3199C67.3828 21.6826 67.8308 21.8639 68.3428 21.8639ZM78.8083 23.4959C78.8083 23.2826 78.8189 23.0586 78.8403 22.8239C78.8616 22.5679 78.9043 22.3332 78.9683 22.1199C79.8216 22.1199 80.3976 21.9279 80.6963 21.5439C81.0163 21.1386 81.1763 20.4026 81.1763 19.3359V4.9999C81.1763 4.4879 81.1229 4.0719 81.0163 3.7519C80.9309 3.41057 80.7176 3.15457 80.3763 2.9839C80.0349 2.81323 79.5016 2.7279 78.7763 2.7279C78.7763 2.49324 78.7976 2.2799 78.8403 2.0879C78.8829 1.8959 78.9576 1.71457 79.0643 1.5439C79.3843 1.5439 79.8323 1.49057 80.4083 1.3839C81.0056 1.27724 81.5816 1.13857 82.1363 0.967901C82.6909 0.797234 83.0963 0.626568 83.3523 0.455902C83.5443 0.519901 83.7043 0.647901 83.8323 0.839901C83.9816 1.0319 84.0563 1.33057 84.0563 1.7359V19.3359C84.0563 20.4026 84.1949 21.1386 84.4723 21.5439C84.7709 21.9279 85.2616 22.1199 85.9443 22.1199C86.0083 22.3332 86.0509 22.5786 86.0723 22.8559C86.0936 23.1332 86.1042 23.3466 86.1042 23.4959C85.7416 23.4746 85.3576 23.4532 84.9523 23.4319C84.5469 23.4319 84.1309 23.4212 83.7043 23.3999C83.2989 23.3999 82.8936 23.3999 82.4883 23.3999C82.0829 23.3999 81.6563 23.3999 81.2083 23.3999C80.7816 23.4212 80.3656 23.4319 79.9603 23.4319C79.5549 23.4532 79.1709 23.4746 78.8083 23.4959ZM95.417 23.4959C95.417 23.1972 95.4277 22.9412 95.449 22.7279C95.4703 22.4932 95.513 22.2906 95.577 22.1199C96.153 22.0772 96.601 21.9812 96.921 21.8319C97.241 21.6612 97.465 21.3839 97.593 20.9999C97.721 20.5946 97.785 20.0399 97.785 19.3359V5.8319C97.785 5.10657 97.721 4.5519 97.593 4.1679C97.465 3.7839 97.241 3.50657 96.921 3.3359C96.601 3.16523 96.153 3.06923 95.577 3.0479C95.513 2.87723 95.4703 2.67457 95.449 2.4399C95.4277 2.20524 95.417 1.94924 95.417 1.6719C96.249 1.71457 97.049 1.74657 97.817 1.7679C98.6063 1.7679 99.257 1.7679 99.769 1.7679C100.068 1.7679 100.484 1.7679 101.017 1.7679C101.572 1.74657 102.116 1.7359 102.649 1.7359C103.182 1.71457 103.577 1.7039 103.833 1.7039C105.604 1.7039 107.022 1.9919 108.089 2.5679C109.156 3.1439 109.924 3.90123 110.393 4.8399C110.862 5.77857 111.097 6.80257 111.097 7.9119C111.097 9.1279 110.82 10.3012 110.265 11.4319C109.732 12.5626 108.932 13.4906 107.865 14.2159C106.798 14.9412 105.454 15.3039 103.833 15.3039C102.937 15.3039 102.19 15.1866 101.593 14.9519C101.55 14.7172 101.529 14.4932 101.529 14.2799C101.529 14.0666 101.561 13.8532 101.625 13.6399C101.902 13.7039 102.18 13.7572 102.457 13.7999C102.734 13.8212 103.022 13.8319 103.321 13.8319C104.11 13.8319 104.846 13.6932 105.529 13.4159C106.212 13.1386 106.766 12.6479 107.193 11.9439C107.62 11.2186 107.833 10.1839 107.833 8.8399C107.833 7.13323 107.406 5.75723 106.553 4.7119C105.721 3.64524 104.345 3.1119 102.425 3.1119C102.19 3.1119 101.913 3.13324 101.593 3.1759C101.294 3.19723 100.868 3.2719 100.313 3.3999L100.793 2.9199V18.6959C100.793 19.6132 100.889 20.3172 101.081 20.8079C101.273 21.2772 101.582 21.6079 102.009 21.7999C102.436 21.9706 102.98 22.0772 103.641 22.1199C103.705 22.2906 103.748 22.4932 103.769 22.7279C103.79 22.9412 103.801 23.1972 103.801 23.4959C103.481 23.4746 103.097 23.4532 102.649 23.4319C102.222 23.4319 101.764 23.4212 101.273 23.3999C100.782 23.3999 100.281 23.3999 99.769 23.3999C99.2783 23.3999 98.745 23.3999 98.169 23.3999C97.593 23.4212 97.0597 23.4319 96.569 23.4319C96.0783 23.4532 95.6943 23.4746 95.417 23.4959ZM118.651 18.6959C118.651 19.6132 118.747 20.3172 118.939 20.8079C119.131 21.2772 119.44 21.6079 119.867 21.7999C120.293 21.9706 120.837 22.0772 121.499 22.1199C121.563 22.2906 121.605 22.4932 121.627 22.7279C121.648 22.9412 121.659 23.1972 121.659 23.4959C121.339 23.4746 120.955 23.4532 120.507 23.4319C120.08 23.4319 119.621 23.4212 119.131 23.3999C118.64 23.3999 118.139 23.3999 117.627 23.3999C116.88 23.3999 116.091 23.3999 115.259 23.3999C114.448 23.4212 113.829 23.4532 113.403 23.4959C113.403 23.1972 113.413 22.9412 113.435 22.7279C113.456 22.4932 113.499 22.2906 113.563 22.1199C114.139 22.0772 114.587 21.9812 114.907 21.8319C115.227 21.6612 115.451 21.3839 115.579 20.9999C115.707 20.5946 115.771 20.0399 115.771 19.3359V16.1359H118.651V18.6959ZM118.651 14.0239V16.5519H115.771V12.9999L118.651 9.8639C118.651 10.5892 118.587 11.2506 118.459 11.8479C118.331 12.4239 118.213 12.9999 118.107 13.5759L118.651 14.0239ZM117.947 13.7679C118.181 13.1706 118.363 12.6799 118.491 12.2959C118.619 11.9119 118.757 11.5919 118.907 11.3359C119.376 10.5892 119.931 9.97057 120.571 9.4799C121.211 8.98923 121.947 8.7439 122.779 8.7439C123.589 8.7439 124.325 8.9999 124.987 9.5119C124.944 9.85324 124.901 10.2479 124.859 10.6959C124.816 11.1439 124.784 11.5919 124.763 12.0399C124.763 12.4879 124.763 12.9039 124.763 13.2879C124.571 13.3519 124.304 13.4159 123.963 13.4799C123.643 13.5439 123.301 13.5759 122.939 13.5759C122.896 12.5519 122.725 11.8799 122.427 11.5599C122.149 11.2399 121.797 11.0799 121.371 11.0799C121.008 11.0799 120.613 11.2932 120.187 11.7199C119.76 12.1252 119.397 12.6692 119.099 13.3519C118.8 14.0346 118.651 14.7919 118.651 15.6239L117.947 13.7679ZM115.771 16.5519V12.9999C115.771 12.4879 115.717 12.0719 115.611 11.7519C115.504 11.4319 115.28 11.1866 114.939 11.0159C114.597 10.8452 114.075 10.7492 113.371 10.7279C113.371 10.4932 113.392 10.2799 113.435 10.0879C113.477 9.8959 113.552 9.71457 113.659 9.5439C114.32 9.50123 115.077 9.37323 115.931 9.1599C116.784 8.94657 117.456 8.7119 117.947 8.4559C118.139 8.5199 118.299 8.65857 118.427 8.8719C118.576 9.0639 118.651 9.39457 118.651 9.8639L115.771 16.5519ZM134.137 23.6879C132.686 23.6879 131.417 23.3786 130.329 22.7599C129.241 22.1199 128.398 21.2346 127.801 20.1039C127.204 18.9519 126.905 17.6079 126.905 16.0719C126.905 14.6212 127.214 13.3199 127.833 12.1679C128.452 11.0159 129.305 10.1092 130.393 9.4479C131.481 8.78657 132.729 8.4559 134.137 8.4559C135.652 8.4559 136.942 8.7759 138.009 9.4159C139.097 10.0559 139.929 10.9519 140.505 12.1039C141.081 13.2346 141.369 14.5572 141.369 16.0719C141.369 17.5226 141.06 18.8239 140.441 19.9759C139.844 21.1279 139.001 22.0346 137.913 22.6959C136.846 23.3572 135.588 23.6879 134.137 23.6879ZM134.393 22.1519C135.673 22.1519 136.622 21.6292 137.241 20.5839C137.86 19.5172 138.169 18.1412 138.169 16.4559C138.169 15.1332 137.966 13.9919 137.561 13.0319C137.177 12.0506 136.654 11.3039 135.993 10.7919C135.332 10.2586 134.606 9.9919 133.817 9.9919C132.58 9.9919 131.652 10.4932 131.033 11.4959C130.436 12.4986 130.137 13.7999 130.137 15.3999C130.137 16.8292 130.308 18.0559 130.649 19.0799C131.012 20.0826 131.513 20.8506 132.153 21.3839C132.793 21.8959 133.54 22.1519 134.393 22.1519ZM151.904 8.4559C152.523 8.4559 153.056 8.50924 153.504 8.6159C153.974 8.72257 154.475 8.86123 155.008 9.0319V11.4959C154.582 11.0479 154.112 10.6746 153.6 10.3759C153.11 10.0772 152.491 9.9279 151.744 9.9279C151.296 9.9279 150.806 10.0239 150.272 10.2159C149.76 10.3866 149.259 10.6959 148.768 11.1439C148.278 11.5919 147.872 12.2212 147.552 13.0319C147.254 13.8426 147.104 14.8879 147.104 16.1679C147.104 17.5332 147.307 18.6212 147.712 19.4319C148.118 20.2212 148.598 20.7972 149.152 21.1599C149.707 21.5012 150.219 21.6719 150.688 21.6719C151.328 21.6719 151.936 21.4799 152.512 21.0959C153.11 20.6906 153.6 20.0399 153.984 19.1439C154.368 18.2479 154.56 17.0532 154.56 15.5599L155.488 18.9519C155.211 19.6346 154.966 20.1572 154.752 20.5199C154.56 20.8826 154.411 21.1492 154.304 21.3199C154.112 21.6399 153.803 21.9812 153.376 22.3439C152.971 22.7066 152.47 23.0266 151.872 23.3039C151.296 23.5599 150.646 23.6879 149.92 23.6879C148.683 23.6879 147.616 23.4426 146.72 22.9519C145.824 22.4399 145.131 21.6612 144.64 20.6159C144.171 19.5706 143.936 18.2266 143.936 16.5839C143.936 15.0906 144.267 13.7359 144.928 12.5199C145.59 11.2826 146.518 10.3012 147.712 9.5759C148.907 8.82924 150.304 8.4559 151.904 8.4559ZM157.44 19.0479C157.44 19.5386 157.483 19.9546 157.568 20.2959C157.654 20.6159 157.835 20.8506 158.112 20.9999C158.411 21.1492 158.848 21.2239 159.424 21.2239C159.424 21.4372 159.414 21.6826 159.392 21.9599C159.371 22.2159 159.318 22.4612 159.232 22.6959C158.699 22.7172 158.08 22.8239 157.376 23.0159C156.672 23.1866 156.075 23.4106 155.584 23.6879C155.371 23.5812 155.179 23.4319 155.008 23.2399C154.859 23.0266 154.784 22.5572 154.784 21.8319C154.784 21.4052 154.816 21.0319 154.88 20.7119C154.966 20.3706 155.083 19.8159 155.232 19.0479H157.44ZM157.44 4.9999V19.3359H154.56V4.9999H157.44ZM156.736 0.455902C156.928 0.519901 157.088 0.647901 157.216 0.839901C157.366 1.0319 157.44 1.33057 157.44 1.7359V6.1839H154.56V4.9999C154.56 4.4879 154.507 4.0719 154.4 3.7519C154.315 3.41057 154.102 3.15457 153.76 2.9839C153.419 2.81323 152.886 2.7279 152.16 2.7279C152.16 2.49324 152.182 2.2799 152.224 2.0879C152.267 1.8959 152.342 1.71457 152.448 1.5439C152.768 1.5439 153.216 1.49057 153.792 1.3839C154.368 1.27724 154.934 1.13857 155.488 0.967901C156.064 0.797234 156.48 0.626568 156.736 0.455902ZM167.919 23.5279C166.489 23.5279 165.369 23.1119 164.559 22.2799C163.748 21.4479 163.343 19.9652 163.343 17.8319V12.9999C163.343 12.2532 163.236 11.6986 163.023 11.3359C162.809 10.9519 162.212 10.7492 161.231 10.7279C161.231 10.4932 161.241 10.2906 161.263 10.1199C161.305 9.9279 161.369 9.7359 161.455 9.5439C162.116 9.50123 162.831 9.37323 163.599 9.1599C164.388 8.94657 165.028 8.7119 165.519 8.4559C165.711 8.5199 165.871 8.65857 165.999 8.8719C166.148 9.0639 166.223 9.39457 166.223 9.8639V17.1279C166.223 18.5572 166.415 19.6559 166.799 20.4239C167.204 21.1919 167.897 21.5759 168.879 21.5759C169.945 21.5759 170.831 21.1279 171.535 20.2319C172.26 19.3359 172.623 17.9599 172.623 16.1039V12.8399C172.623 12.0932 172.484 11.5386 172.207 11.1759C171.951 10.7919 171.289 10.5892 170.223 10.5679C170.223 10.3332 170.233 10.1306 170.255 9.9599C170.276 9.7679 170.34 9.5759 170.447 9.3839C171.279 9.34123 172.089 9.23457 172.879 9.0639C173.689 8.8719 174.329 8.66924 174.799 8.4559C174.991 8.5199 175.151 8.65857 175.279 8.8719C175.428 9.0639 175.503 9.39457 175.503 9.8639V19.1439L173.007 20.3279C172.9 20.6052 172.751 20.8826 172.559 21.1599C172.367 21.4159 172.153 21.6612 171.919 21.8959C171.364 22.4506 170.777 22.8666 170.159 23.1439C169.54 23.3999 168.793 23.5279 167.919 23.5279ZM173.647 23.6879C173.433 23.5812 173.241 23.4319 173.071 23.2399C172.921 23.0266 172.847 22.5572 172.847 21.8319C172.847 21.5972 172.857 21.2666 172.879 20.8399C172.921 20.4132 173.017 19.8159 173.167 19.0479H175.503C175.503 19.5386 175.545 19.9546 175.631 20.2959C175.716 20.6159 175.897 20.8506 176.175 20.9999C176.473 21.1492 176.911 21.2239 177.487 21.2239C177.487 21.4372 177.476 21.6826 177.455 21.9599C177.433 22.2159 177.38 22.4612 177.295 22.6959C176.761 22.7172 176.143 22.8239 175.439 23.0159C174.735 23.1866 174.137 23.4106 173.647 23.6879ZM191.965 20.9039C191.389 21.8212 190.675 22.5146 189.821 22.9839C188.968 23.4532 187.933 23.6879 186.717 23.6879C185.629 23.6879 184.573 23.4106 183.549 22.8559C182.547 22.2799 181.715 21.4372 181.053 20.3279C180.392 19.1972 180.061 17.7999 180.061 16.1359C180.061 14.8559 180.317 13.6292 180.829 12.4559C181.341 11.2826 182.088 10.3226 183.069 9.5759C184.072 8.82924 185.288 8.4559 186.717 8.4559C187.699 8.4559 188.595 8.57324 189.405 8.8079C190.237 9.04257 190.952 9.40523 191.549 9.8959C191.464 10.5146 191.4 11.1226 191.357 11.7199C191.336 12.3172 191.325 12.9252 191.325 13.5439C191.155 13.6292 190.92 13.6932 190.621 13.7359C190.344 13.7786 190.088 13.7999 189.853 13.7999C189.725 12.5626 189.363 11.6132 188.765 10.9519C188.168 10.2906 187.4 9.9599 186.461 9.9599C185.416 9.9599 184.584 10.4506 183.965 11.4319C183.347 12.4132 183.037 13.8212 183.037 15.6559C183.037 16.7226 183.208 17.7359 183.549 18.6959C183.912 19.6346 184.435 20.4026 185.117 20.9999C185.8 21.5759 186.632 21.8639 187.613 21.8639C188.296 21.8639 188.936 21.7039 189.533 21.3839C190.152 21.0639 190.696 20.6052 191.165 20.0079C191.336 20.0932 191.496 20.2212 191.645 20.3919C191.795 20.5412 191.901 20.7119 191.965 20.9039ZM199.75 23.6879C198.491 23.6879 197.552 23.3679 196.934 22.7279C196.336 22.0666 196.038 21.0106 196.038 19.5599V10.8879C195.718 10.7812 195.387 10.6959 195.046 10.6319C194.704 10.5466 194.267 10.4932 193.734 10.4719C193.734 10.1946 193.755 9.9599 193.798 9.7679C193.84 9.55457 193.915 9.3199 194.022 9.0639H196.038V4.8399C196.464 4.73323 196.88 4.56257 197.286 4.3279C197.712 4.09323 198.086 3.83723 198.406 3.5599C198.619 3.64523 198.758 3.77323 198.822 3.9439C198.886 4.11457 198.918 4.54123 198.918 5.2239V9.0639H203.078C203.078 9.27724 203.056 9.5119 203.014 9.7679C202.971 10.0026 202.896 10.2372 202.79 10.4719C202.022 10.4932 201.318 10.5466 200.678 10.6319C200.038 10.6959 199.451 10.7812 198.918 10.8879V18.8879C198.918 19.5919 198.992 20.1786 199.142 20.6479C199.291 21.0959 199.504 21.4266 199.782 21.6399C200.059 21.8532 200.39 21.9599 200.774 21.9599C201.222 21.9599 201.606 21.8959 201.926 21.7679C202.267 21.6399 202.587 21.4479 202.886 21.1919C203.163 21.5119 203.323 21.8639 203.366 22.2479C203.024 22.6532 202.502 22.9946 201.798 23.2719C201.115 23.5492 200.432 23.6879 199.75 23.6879Z" fill="#333333"/>
</svg>
